<svg id="Capa_1" enable-background="new 0 0 512 512" height="512" viewBox="0 0 512 512" width="512" xmlns="http://www.w3.org/2000/svg" xmlns:xlink="http://www.w3.org/1999/xlink"><linearGradient id="SVGID_1_" gradientUnits="userSpaceOnUse" x1="256" x2="256" y1="512" y2="0"><stop offset="0" stop-color="#5558ff"/><stop offset="1" stop-color="#00c0ff"/></linearGradient><g><g><path d="m471.661 241.109-20.661-8.42v-37.689c0-8.284-6.716-15-15-15s-15 6.716-15 15v25.463l-30-12.227v-43.236c0-8.284-6.716-15-15-15s-15 6.716-15 15v31.01l-46.591-18.988c1.982-44.56 3.947-130.56-26.834-163.071-8.64-9.127-19.559-13.951-31.575-13.951-11.847 0-22.663 4.812-31.281 13.915-22.075 23.317-30.971 76.726-27.128 163.108l-46.591 18.987v-31.01c0-8.284-6.716-15-15-15s-15 6.716-15 15v43.236l-30 12.227v-25.463c0-8.284-6.716-15-15-15s-15 6.716-15 15v37.689l-20.661 8.42c-5.647 2.302-9.339 7.793-9.339 13.891v60c0 9.299 8.405 16.405 17.626 14.769l158.271-28.139 2.105 93.224-50.502 29.155c-4.641 2.68-7.5 7.632-7.5 12.991v60c0 4.822 2.317 9.35 6.229 12.168 3.911 2.819 8.939 3.587 13.514 2.062l85.257-28.418 85.257 28.418c4.531 1.511 9.567.784 13.514-2.062 3.912-2.818 6.229-7.346 6.229-12.168v-60c0-5.359-2.859-10.311-7.5-12.991l-50.503-29.156 2.105-93.224 158.271 28.139c9.185 1.628 17.627-5.43 17.627-14.768v-60c0-6.098-3.691-11.589-9.339-13.891zm-20.661 55.989-157.873-28.068c-9.044-1.609-17.415 5.233-17.622 14.43l-2.701 119.602c-.124 5.479 2.75 10.589 7.496 13.33l50.7 29.27v30.528l-70.257-23.418c-3.037-1.013-6.365-1.041-9.486 0l-70.257 23.416v-30.528l50.7-29.27c4.746-2.74 7.62-7.851 7.496-13.33l-2.701-119.602c-.207-9.159-8.538-16.044-17.622-14.43l-157.873 28.07v-32.014c24.342-9.92 139.446-56.83 157.762-64.294 5.925-2.415 9.666-8.322 9.316-14.711-5.949-108.634 8.991-141.574 18.426-151.54 3.81-4.023 7.076-4.539 9.496-4.539 3.774 0 6.793 1.412 9.79 4.577 9.33 9.856 24.094 42.644 18.132 151.502-.35 6.389 3.392 12.296 9.316 14.711 17.411 7.096 133.483 54.4 157.762 64.294z" fill="url(#SVGID_1_)"/></g></g></svg>